<mxfile host="app.diagrams.net" modified="2023-08-25T16:22:50.588Z" agent="Mozilla/5.0 (Macintosh; Intel Mac OS X 10_15_7) AppleWebKit/537.36 (KHTML, like Gecko) Chrome/116.0.0.0 Safari/537.36" etag="EHx1Lnq8XFYKyNrNgRxK" version="21.2.9" type="device">
  <diagram id="C5RBs43oDa-KdzZeNtuy" name="Page-1">
    <mxGraphModel dx="2388" dy="1144" grid="1" gridSize="10" guides="1" tooltips="1" connect="1" arrows="1" fold="1" page="1" pageScale="1" pageWidth="827" pageHeight="1169" math="0" shadow="0">
      <root>
        <mxCell id="WIyWlLk6GJQsqaUBKTNV-0" />
        <mxCell id="WIyWlLk6GJQsqaUBKTNV-1" parent="WIyWlLk6GJQsqaUBKTNV-0" />
        <mxCell id="WIyWlLk6GJQsqaUBKTNV-2" value="" style="rounded=0;html=1;jettySize=auto;orthogonalLoop=1;fontSize=11;endArrow=block;endFill=0;endSize=8;strokeWidth=1;shadow=0;labelBackgroundColor=none;edgeStyle=orthogonalEdgeStyle;" parent="WIyWlLk6GJQsqaUBKTNV-1" edge="1">
          <mxGeometry relative="1" as="geometry">
            <mxPoint x="139.5" y="100" as="sourcePoint" />
            <mxPoint x="139.5" y="150" as="targetPoint" />
          </mxGeometry>
        </mxCell>
        <mxCell id="g0lfxOQVbSSVuAhY7UjF-0" value="시작" style="ellipse;whiteSpace=wrap;html=1;" vertex="1" parent="WIyWlLk6GJQsqaUBKTNV-1">
          <mxGeometry x="110" y="60" width="60" height="40" as="geometry" />
        </mxCell>
        <mxCell id="g0lfxOQVbSSVuAhY7UjF-7" value="" style="edgeStyle=orthogonalEdgeStyle;rounded=0;orthogonalLoop=1;jettySize=auto;html=1;" edge="1" parent="WIyWlLk6GJQsqaUBKTNV-1" source="g0lfxOQVbSSVuAhY7UjF-1" target="g0lfxOQVbSSVuAhY7UjF-6">
          <mxGeometry relative="1" as="geometry" />
        </mxCell>
        <mxCell id="g0lfxOQVbSSVuAhY7UjF-1" value="column : 1&lt;br&gt;row : 1" style="rounded=0;whiteSpace=wrap;html=1;" vertex="1" parent="WIyWlLk6GJQsqaUBKTNV-1">
          <mxGeometry x="80" y="150" width="120" height="60" as="geometry" />
        </mxCell>
        <mxCell id="g0lfxOQVbSSVuAhY7UjF-6" value="print (&quot;*&quot;)" style="rounded=0;whiteSpace=wrap;html=1;" vertex="1" parent="WIyWlLk6GJQsqaUBKTNV-1">
          <mxGeometry x="80" y="260" width="120" height="60" as="geometry" />
        </mxCell>
        <mxCell id="g0lfxOQVbSSVuAhY7UjF-8" value="" style="rounded=0;html=1;jettySize=auto;orthogonalLoop=1;fontSize=11;endArrow=block;endFill=0;endSize=8;strokeWidth=1;shadow=0;labelBackgroundColor=none;edgeStyle=orthogonalEdgeStyle;" edge="1" parent="WIyWlLk6GJQsqaUBKTNV-1">
          <mxGeometry relative="1" as="geometry">
            <mxPoint x="138.5" y="321" as="sourcePoint" />
            <mxPoint x="139" y="370" as="targetPoint" />
          </mxGeometry>
        </mxCell>
        <mxCell id="g0lfxOQVbSSVuAhY7UjF-9" value="column이&amp;nbsp;&lt;br&gt;11보다 작은가?" style="rhombus;whiteSpace=wrap;html=1;" vertex="1" parent="WIyWlLk6GJQsqaUBKTNV-1">
          <mxGeometry x="65" y="370" width="150" height="80" as="geometry" />
        </mxCell>
        <mxCell id="g0lfxOQVbSSVuAhY7UjF-10" value="column ++" style="rounded=0;whiteSpace=wrap;html=1;" vertex="1" parent="WIyWlLk6GJQsqaUBKTNV-1">
          <mxGeometry x="86" y="499" width="110" height="40" as="geometry" />
        </mxCell>
        <mxCell id="g0lfxOQVbSSVuAhY7UjF-11" value="" style="rounded=0;html=1;jettySize=auto;orthogonalLoop=1;fontSize=11;endArrow=block;endFill=0;endSize=8;strokeWidth=1;shadow=0;labelBackgroundColor=none;edgeStyle=orthogonalEdgeStyle;" edge="1" parent="WIyWlLk6GJQsqaUBKTNV-1">
          <mxGeometry relative="1" as="geometry">
            <mxPoint x="140.5" y="449" as="sourcePoint" />
            <mxPoint x="141" y="498" as="targetPoint" />
          </mxGeometry>
        </mxCell>
        <mxCell id="g0lfxOQVbSSVuAhY7UjF-12" value="row++" style="ellipse;whiteSpace=wrap;html=1;" vertex="1" parent="WIyWlLk6GJQsqaUBKTNV-1">
          <mxGeometry x="90" y="580" width="100" height="60" as="geometry" />
        </mxCell>
        <mxCell id="g0lfxOQVbSSVuAhY7UjF-14" value="" style="rounded=0;html=1;jettySize=auto;orthogonalLoop=1;fontSize=11;endArrow=block;endFill=0;endSize=8;strokeWidth=1;shadow=0;labelBackgroundColor=none;edgeStyle=orthogonalEdgeStyle;" edge="1" parent="WIyWlLk6GJQsqaUBKTNV-1">
          <mxGeometry relative="1" as="geometry">
            <mxPoint x="84.5" y="510" as="sourcePoint" />
            <mxPoint x="140" y="230" as="targetPoint" />
            <Array as="points">
              <mxPoint x="85" y="511" />
              <mxPoint x="31" y="511" />
            </Array>
          </mxGeometry>
        </mxCell>
        <mxCell id="g0lfxOQVbSSVuAhY7UjF-15" value="" style="rounded=0;html=1;jettySize=auto;orthogonalLoop=1;fontSize=11;endArrow=block;endFill=0;endSize=8;strokeWidth=1;shadow=0;labelBackgroundColor=none;edgeStyle=orthogonalEdgeStyle;exitX=1;exitY=0.5;exitDx=0;exitDy=0;entryX=1;entryY=0.5;entryDx=0;entryDy=0;" edge="1" parent="WIyWlLk6GJQsqaUBKTNV-1" source="g0lfxOQVbSSVuAhY7UjF-9" target="g0lfxOQVbSSVuAhY7UjF-12">
          <mxGeometry relative="1" as="geometry">
            <mxPoint x="242.5" y="409" as="sourcePoint" />
            <mxPoint x="243" y="600" as="targetPoint" />
          </mxGeometry>
        </mxCell>
        <mxCell id="g0lfxOQVbSSVuAhY7UjF-16" value="" style="rounded=0;html=1;jettySize=auto;orthogonalLoop=1;fontSize=11;endArrow=block;endFill=0;endSize=8;strokeWidth=1;shadow=0;labelBackgroundColor=none;edgeStyle=orthogonalEdgeStyle;" edge="1" parent="WIyWlLk6GJQsqaUBKTNV-1">
          <mxGeometry relative="1" as="geometry">
            <mxPoint x="477.5" y="95" as="sourcePoint" />
            <mxPoint x="477.5" y="145" as="targetPoint" />
          </mxGeometry>
        </mxCell>
        <mxCell id="g0lfxOQVbSSVuAhY7UjF-17" value="시작" style="ellipse;whiteSpace=wrap;html=1;" vertex="1" parent="WIyWlLk6GJQsqaUBKTNV-1">
          <mxGeometry x="448" y="55" width="60" height="40" as="geometry" />
        </mxCell>
        <mxCell id="g0lfxOQVbSSVuAhY7UjF-18" value="" style="edgeStyle=orthogonalEdgeStyle;rounded=0;orthogonalLoop=1;jettySize=auto;html=1;" edge="1" parent="WIyWlLk6GJQsqaUBKTNV-1" source="g0lfxOQVbSSVuAhY7UjF-19" target="g0lfxOQVbSSVuAhY7UjF-20">
          <mxGeometry relative="1" as="geometry" />
        </mxCell>
        <mxCell id="g0lfxOQVbSSVuAhY7UjF-19" value="column : 1&lt;br&gt;row : 1" style="rounded=0;whiteSpace=wrap;html=1;" vertex="1" parent="WIyWlLk6GJQsqaUBKTNV-1">
          <mxGeometry x="418" y="145" width="120" height="60" as="geometry" />
        </mxCell>
        <mxCell id="g0lfxOQVbSSVuAhY7UjF-20" value="print(&quot; &quot;)" style="rounded=0;whiteSpace=wrap;html=1;" vertex="1" parent="WIyWlLk6GJQsqaUBKTNV-1">
          <mxGeometry x="418" y="255" width="120" height="60" as="geometry" />
        </mxCell>
        <mxCell id="g0lfxOQVbSSVuAhY7UjF-21" value="" style="rounded=0;html=1;jettySize=auto;orthogonalLoop=1;fontSize=11;endArrow=block;endFill=0;endSize=8;strokeWidth=1;shadow=0;labelBackgroundColor=none;edgeStyle=orthogonalEdgeStyle;" edge="1" parent="WIyWlLk6GJQsqaUBKTNV-1">
          <mxGeometry relative="1" as="geometry">
            <mxPoint x="476.5" y="316" as="sourcePoint" />
            <mxPoint x="477" y="365" as="targetPoint" />
          </mxGeometry>
        </mxCell>
        <mxCell id="g0lfxOQVbSSVuAhY7UjF-22" value="column이&amp;nbsp;&lt;br&gt;4보다 작은가 ?&amp;nbsp;" style="rhombus;whiteSpace=wrap;html=1;" vertex="1" parent="WIyWlLk6GJQsqaUBKTNV-1">
          <mxGeometry x="403" y="365" width="150" height="80" as="geometry" />
        </mxCell>
        <mxCell id="g0lfxOQVbSSVuAhY7UjF-23" value="column++" style="rounded=0;whiteSpace=wrap;html=1;" vertex="1" parent="WIyWlLk6GJQsqaUBKTNV-1">
          <mxGeometry x="424" y="494" width="110" height="40" as="geometry" />
        </mxCell>
        <mxCell id="g0lfxOQVbSSVuAhY7UjF-24" value="" style="rounded=0;html=1;jettySize=auto;orthogonalLoop=1;fontSize=11;endArrow=block;endFill=0;endSize=8;strokeWidth=1;shadow=0;labelBackgroundColor=none;edgeStyle=orthogonalEdgeStyle;" edge="1" parent="WIyWlLk6GJQsqaUBKTNV-1">
          <mxGeometry relative="1" as="geometry">
            <mxPoint x="478.5" y="444" as="sourcePoint" />
            <mxPoint x="479" y="493" as="targetPoint" />
          </mxGeometry>
        </mxCell>
        <mxCell id="g0lfxOQVbSSVuAhY7UjF-26" value="" style="rounded=0;html=1;jettySize=auto;orthogonalLoop=1;fontSize=11;endArrow=block;endFill=0;endSize=8;strokeWidth=1;shadow=0;labelBackgroundColor=none;edgeStyle=orthogonalEdgeStyle;" edge="1" parent="WIyWlLk6GJQsqaUBKTNV-1">
          <mxGeometry relative="1" as="geometry">
            <mxPoint x="422.5" y="505" as="sourcePoint" />
            <mxPoint x="478" y="225" as="targetPoint" />
            <Array as="points">
              <mxPoint x="423" y="506" />
              <mxPoint x="369" y="506" />
            </Array>
          </mxGeometry>
        </mxCell>
        <mxCell id="g0lfxOQVbSSVuAhY7UjF-27" value="" style="rounded=0;html=1;jettySize=auto;orthogonalLoop=1;fontSize=11;endArrow=block;endFill=0;endSize=8;strokeWidth=1;shadow=0;labelBackgroundColor=none;edgeStyle=orthogonalEdgeStyle;exitX=1;exitY=0.5;exitDx=0;exitDy=0;entryX=1;entryY=0.5;entryDx=0;entryDy=0;" edge="1" parent="WIyWlLk6GJQsqaUBKTNV-1" source="g0lfxOQVbSSVuAhY7UjF-22" target="g0lfxOQVbSSVuAhY7UjF-31">
          <mxGeometry relative="1" as="geometry">
            <mxPoint x="580.5" y="404" as="sourcePoint" />
            <mxPoint x="528" y="605" as="targetPoint" />
          </mxGeometry>
        </mxCell>
        <mxCell id="g0lfxOQVbSSVuAhY7UjF-28" value="No" style="text;strokeColor=none;align=center;fillColor=none;html=1;verticalAlign=middle;whiteSpace=wrap;rounded=0;" vertex="1" parent="WIyWlLk6GJQsqaUBKTNV-1">
          <mxGeometry x="200" y="380" width="60" height="30" as="geometry" />
        </mxCell>
        <mxCell id="g0lfxOQVbSSVuAhY7UjF-29" value="Yes" style="text;strokeColor=none;align=center;fillColor=none;html=1;verticalAlign=middle;whiteSpace=wrap;rounded=0;" vertex="1" parent="WIyWlLk6GJQsqaUBKTNV-1">
          <mxGeometry x="126" y="452" width="60" height="30" as="geometry" />
        </mxCell>
        <mxCell id="g0lfxOQVbSSVuAhY7UjF-32" style="edgeStyle=orthogonalEdgeStyle;rounded=0;orthogonalLoop=1;jettySize=auto;html=1;exitX=0.5;exitY=1;exitDx=0;exitDy=0;" edge="1" parent="WIyWlLk6GJQsqaUBKTNV-1" source="g0lfxOQVbSSVuAhY7UjF-31">
          <mxGeometry relative="1" as="geometry">
            <mxPoint x="480" y="680" as="targetPoint" />
          </mxGeometry>
        </mxCell>
        <mxCell id="g0lfxOQVbSSVuAhY7UjF-31" value="column++" style="rounded=0;whiteSpace=wrap;html=1;" vertex="1" parent="WIyWlLk6GJQsqaUBKTNV-1">
          <mxGeometry x="425" y="587" width="110" height="40" as="geometry" />
        </mxCell>
        <mxCell id="g0lfxOQVbSSVuAhY7UjF-34" style="edgeStyle=orthogonalEdgeStyle;rounded=0;orthogonalLoop=1;jettySize=auto;html=1;exitX=0.5;exitY=1;exitDx=0;exitDy=0;" edge="1" parent="WIyWlLk6GJQsqaUBKTNV-1" source="g0lfxOQVbSSVuAhY7UjF-33">
          <mxGeometry relative="1" as="geometry">
            <mxPoint x="484" y="800" as="targetPoint" />
          </mxGeometry>
        </mxCell>
        <mxCell id="g0lfxOQVbSSVuAhY7UjF-33" value="print(&quot;| |&quot;)" style="rounded=0;whiteSpace=wrap;html=1;" vertex="1" parent="WIyWlLk6GJQsqaUBKTNV-1">
          <mxGeometry x="424" y="680" width="120" height="60" as="geometry" />
        </mxCell>
        <mxCell id="g0lfxOQVbSSVuAhY7UjF-36" style="edgeStyle=orthogonalEdgeStyle;rounded=0;orthogonalLoop=1;jettySize=auto;html=1;exitX=0.5;exitY=1;exitDx=0;exitDy=0;" edge="1" parent="WIyWlLk6GJQsqaUBKTNV-1" source="g0lfxOQVbSSVuAhY7UjF-35">
          <mxGeometry relative="1" as="geometry">
            <mxPoint x="484" y="940" as="targetPoint" />
          </mxGeometry>
        </mxCell>
        <mxCell id="g0lfxOQVbSSVuAhY7UjF-39" style="edgeStyle=orthogonalEdgeStyle;rounded=0;orthogonalLoop=1;jettySize=auto;html=1;exitX=1;exitY=0.5;exitDx=0;exitDy=0;entryX=1;entryY=0.5;entryDx=0;entryDy=0;" edge="1" parent="WIyWlLk6GJQsqaUBKTNV-1" source="g0lfxOQVbSSVuAhY7UjF-35" target="g0lfxOQVbSSVuAhY7UjF-40">
          <mxGeometry relative="1" as="geometry">
            <mxPoint x="610" y="1080" as="targetPoint" />
          </mxGeometry>
        </mxCell>
        <mxCell id="g0lfxOQVbSSVuAhY7UjF-35" value="column이&lt;br&gt;7보다 작은가?" style="rhombus;whiteSpace=wrap;html=1;" vertex="1" parent="WIyWlLk6GJQsqaUBKTNV-1">
          <mxGeometry x="394" y="800" width="180" height="80" as="geometry" />
        </mxCell>
        <mxCell id="g0lfxOQVbSSVuAhY7UjF-38" style="edgeStyle=orthogonalEdgeStyle;rounded=0;orthogonalLoop=1;jettySize=auto;html=1;exitX=0;exitY=0.5;exitDx=0;exitDy=0;" edge="1" parent="WIyWlLk6GJQsqaUBKTNV-1" source="g0lfxOQVbSSVuAhY7UjF-37">
          <mxGeometry relative="1" as="geometry">
            <mxPoint x="480" y="660" as="targetPoint" />
            <Array as="points">
              <mxPoint x="381" y="965" />
            </Array>
          </mxGeometry>
        </mxCell>
        <mxCell id="g0lfxOQVbSSVuAhY7UjF-37" value="column++" style="rounded=0;whiteSpace=wrap;html=1;" vertex="1" parent="WIyWlLk6GJQsqaUBKTNV-1">
          <mxGeometry x="424" y="940" width="120" height="50" as="geometry" />
        </mxCell>
        <mxCell id="g0lfxOQVbSSVuAhY7UjF-40" value="row++" style="ellipse;whiteSpace=wrap;html=1;" vertex="1" parent="WIyWlLk6GJQsqaUBKTNV-1">
          <mxGeometry x="425" y="1020" width="120" height="80" as="geometry" />
        </mxCell>
        <mxCell id="g0lfxOQVbSSVuAhY7UjF-41" value="Yes" style="text;strokeColor=none;align=center;fillColor=none;html=1;verticalAlign=middle;whiteSpace=wrap;rounded=0;" vertex="1" parent="WIyWlLk6GJQsqaUBKTNV-1">
          <mxGeometry x="470" y="452" width="60" height="30" as="geometry" />
        </mxCell>
        <mxCell id="g0lfxOQVbSSVuAhY7UjF-42" value="No" style="text;strokeColor=none;align=center;fillColor=none;html=1;verticalAlign=middle;whiteSpace=wrap;rounded=0;" vertex="1" parent="WIyWlLk6GJQsqaUBKTNV-1">
          <mxGeometry x="574" y="400" width="60" height="30" as="geometry" />
        </mxCell>
        <mxCell id="g0lfxOQVbSSVuAhY7UjF-43" value="Yes" style="text;strokeColor=none;align=center;fillColor=none;html=1;verticalAlign=middle;whiteSpace=wrap;rounded=0;" vertex="1" parent="WIyWlLk6GJQsqaUBKTNV-1">
          <mxGeometry x="478" y="890" width="60" height="30" as="geometry" />
        </mxCell>
        <mxCell id="g0lfxOQVbSSVuAhY7UjF-44" value="No" style="text;strokeColor=none;align=center;fillColor=none;html=1;verticalAlign=middle;whiteSpace=wrap;rounded=0;" vertex="1" parent="WIyWlLk6GJQsqaUBKTNV-1">
          <mxGeometry x="590" y="850" width="60" height="30" as="geometry" />
        </mxCell>
      </root>
    </mxGraphModel>
  </diagram>
</mxfile>
